<svg xmlns="http://www.w3.org/2000/svg" viewBox="0 0 1440 320"><path fill="#fff" fill-opacity="1" d="M0,32L34.3,69.3C68.6,107,137,181,206,224C274.3,267,343,277,411,250.7C480,224,549,160,617,122.7C685.7,85,754,75,823,101.3C891.4,128,960,192,1029,186.7C1097.1,181,1166,107,1234,74.7C1302.9,43,1371,53,1406,58.7L1440,64L1440,320L1405.7,320C1371.4,320,1303,320,1234,320C1165.7,320,1097,320,1029,320C960,320,891,320,823,320C754.3,320,686,320,617,320C548.6,320,480,320,411,320C342.9,320,274,320,206,320C137.1,320,69,320,34,320L0,320Z"></path></svg>