<svg xmlns="http://www.w3.org/2000/svg" viewBox="0 0 1440 320"><path fill="#fff" fill-opacity="1" d="M0,224L34.3,218.7C68.6,213,137,203,206,213.3C274.3,224,343,256,411,245.3C480,235,549,181,617,176C685.7,171,754,213,823,229.3C891.4,245,960,235,1029,213.3C1097.1,192,1166,160,1234,149.3C1302.9,139,1371,149,1406,154.7L1440,160L1440,320L1405.7,320C1371.4,320,1303,320,1234,320C1165.7,320,1097,320,1029,320C960,320,891,320,823,320C754.3,320,686,320,617,320C548.6,320,480,320,411,320C342.9,320,274,320,206,320C137.1,320,69,320,34,320L0,320Z"></path></svg>